<svg width="157" height="157" viewBox="0 0 157 157" fill="none" xmlns="http://www.w3.org/2000/svg">
<path d="M85.7933 16.9487C84.8569 16.8426 84.01 16.5747 83.2526 16.145C82.5068 15.7167 81.87 15.1644 81.342 14.4881C80.8258 13.8131 80.4503 13.0474 80.2154 12.1909C79.9806 11.3344 79.9182 10.4204 80.0283 9.44895C80.1385 8.47746 80.398 7.59997 80.8069 6.81647C81.2288 6.02259 81.7662 5.36036 82.4191 4.82976C83.0851 4.28879 83.8346 3.89955 84.6676 3.66204C85.502 3.41283 86.3874 3.3413 87.3238 3.44745C88.2601 3.5536 89.0791 3.80648 89.7807 4.20609C90.4939 4.60704 91.0782 5.10005 91.5335 5.68514C91.9902 6.25852 92.2945 6.868 92.4466 7.51355L90.1912 8.27149C90.0197 7.58816 89.6652 7.00265 89.1277 6.51494C88.5916 6.01553 87.908 5.71872 87.077 5.62451C86.2577 5.53163 85.5101 5.6425 84.8342 5.9571C84.1701 6.27303 83.624 6.75053 83.1959 7.38959C82.7795 8.02998 82.5196 8.80666 82.4161 9.71962C82.3126 10.6326 82.3914 11.4536 82.6526 12.1826C82.9267 12.9013 83.3521 13.4889 83.9287 13.9455C84.5169 14.4034 85.2207 14.6788 86.0401 14.7717C86.8711 14.8659 87.6031 14.7355 88.2361 14.3805C88.8704 14.0137 89.3476 13.5166 89.6677 12.889L91.6962 14.1325C91.4035 14.7277 90.9698 15.2594 90.3951 15.7277C89.8217 16.1843 89.1426 16.5282 88.3576 16.7593C87.5844 16.9917 86.7296 17.0549 85.7933 16.9487Z" fill="white"/>
<path d="M97.7222 19.6549C96.8285 19.3559 96.0821 18.8764 95.4831 18.2164C94.8953 17.5602 94.5031 16.8017 94.3066 15.941C94.1213 15.0841 94.1818 14.1976 94.4883 13.2815C94.7947 12.3655 95.2798 11.621 95.9435 11.0481C96.6183 10.4789 97.3879 10.1091 98.2523 9.93866C99.1167 9.76825 100.001 9.83439 100.906 10.1371C101.8 10.4361 102.541 10.9137 103.129 11.5699C103.716 12.2262 104.103 12.9828 104.288 13.8397C104.488 14.6893 104.434 15.5776 104.123 16.5048C103.817 17.4208 103.326 18.1635 102.651 18.7327C101.977 19.3019 101.207 19.6717 100.343 19.8421C99.4781 20.0125 98.6047 19.9501 97.7222 19.6549ZM98.3949 17.6441C98.8864 17.8085 99.3557 17.8351 99.8028 17.7238C100.261 17.6163 100.666 17.3914 101.016 17.049C101.382 16.6993 101.652 16.2619 101.828 15.7368C102.007 15.2006 102.052 14.6941 101.963 14.2172C101.889 13.7328 101.702 13.3098 101.4 12.9482C101.114 12.5791 100.725 12.3123 100.234 12.1479C99.7308 11.9797 99.2485 11.955 98.7864 12.0737C98.3281 12.1812 97.9181 12.4043 97.5564 12.7429C97.2097 13.074 96.9466 13.5077 96.7672 14.0439C96.5915 14.569 96.5388 15.0792 96.6091 15.5747C96.6942 16.0628 96.8875 16.4877 97.1888 16.8493C97.4901 17.211 97.8922 17.4759 98.3949 17.6441Z" fill="white"/>
<path d="M104.513 22.0091L109.153 13.5911L111.056 14.6403L110.143 16.296L110.151 15.9167C110.625 15.5193 111.155 15.3138 111.741 15.3005C112.343 15.2824 112.943 15.4383 113.541 15.7682C114.16 16.1093 114.633 16.5448 114.96 17.0746C115.297 17.6101 115.466 18.1942 115.467 18.8269C115.473 19.4493 115.303 20.0751 114.956 20.7044L111.971 26.1204L109.944 25.003L112.665 20.0667C112.87 19.6954 112.974 19.3358 112.977 18.9879C112.981 18.6401 112.893 18.3229 112.715 18.0363C112.553 17.7451 112.301 17.5056 111.961 17.318C111.631 17.136 111.294 17.0513 110.951 17.0639C110.613 17.0662 110.298 17.1616 110.006 17.3502C109.714 17.5388 109.465 17.8188 109.261 18.1902L106.54 23.1265L104.513 22.0091Z" fill="white"/>
<path d="M116.882 29.9693C116.015 29.3195 115.518 28.5788 115.39 27.7473C115.279 26.9133 115.548 26.0627 116.198 25.1954L118.74 21.8015L117.411 20.8056L118.65 19.1511L118.792 19.257C119.169 19.5395 119.535 19.6595 119.891 19.6169C120.247 19.5743 120.566 19.3644 120.848 18.9873L121.293 18.3934L123.146 19.7812L121.832 21.5347L123.6 22.859L122.36 24.5135L120.593 23.1893L118.124 26.4842C117.934 26.7387 117.814 26.9873 117.764 27.23C117.724 27.4798 117.763 27.7224 117.881 27.9579C118.009 28.2005 118.223 28.4348 118.525 28.6608C118.591 28.7103 118.67 28.7621 118.762 28.8162C118.863 28.8774 118.96 28.9351 119.052 28.9892L117.865 30.573C117.719 30.493 117.554 30.3989 117.37 30.2906C117.186 30.1823 117.024 30.0752 116.882 29.9693Z" fill="white"/>
<path d="M120.879 33.6552C120.402 33.1822 120.067 32.6921 119.874 32.1847C119.68 31.6773 119.633 31.1819 119.731 30.6984C119.837 30.2066 120.085 29.7642 120.475 29.3712C120.849 28.995 121.264 28.7435 121.722 28.6168C122.188 28.4817 122.696 28.4881 123.246 28.636C123.796 28.7838 124.381 29.0814 124.999 29.5288L127.592 31.3806L126.348 32.6348L124.105 31.0566C123.721 30.7915 123.375 30.6554 123.066 30.6482C122.758 30.6411 122.484 30.7587 122.243 31.0012C122.011 31.2353 121.912 31.5106 121.946 31.8269C121.998 32.1433 122.157 32.4342 122.425 32.6997C122.767 33.0399 123.139 33.2676 123.539 33.3826C123.956 33.4977 124.364 33.4961 124.764 33.378C125.171 33.2681 125.529 33.0585 125.836 32.7492L127.578 30.9933C127.869 30.7007 127.992 30.342 127.949 29.9174C127.922 29.4927 127.721 29.0936 127.345 28.7202C126.993 28.3717 126.584 28.1567 126.118 28.0752C125.668 27.9937 125.226 28.0453 124.794 28.2302L124.099 26.2463C124.59 26.0195 125.106 25.9176 125.647 25.9405C126.205 25.9634 126.756 26.0945 127.298 26.334C127.84 26.5735 128.341 26.9214 128.801 27.3778C129.361 27.9337 129.751 28.5278 129.97 29.16C130.197 29.7838 130.245 30.3959 130.115 30.9961C130 31.5963 129.702 32.1388 129.221 32.6238L124.716 37.1639L123.16 35.6206L124.318 34.4542L124.694 34.7776C124.228 34.896 123.774 34.9352 123.333 34.8952C122.899 34.8469 122.474 34.7236 122.057 34.5253C121.648 34.3186 121.255 34.0286 120.879 33.6552Z" fill="white"/>
<path d="M128.733 42.8238C128.181 42.0462 127.86 41.2191 127.771 40.3425C127.699 39.4687 127.844 38.6358 128.206 37.8437C128.577 37.0447 129.152 36.3688 129.929 35.8159C130.707 35.2629 131.529 34.9456 132.396 34.8639C133.263 34.7822 134.093 34.9222 134.885 35.284C135.684 35.6554 136.36 36.2299 136.913 37.0075C137.308 37.5643 137.576 38.1544 137.716 38.7777C137.865 39.3942 137.89 39.9982 137.79 40.5895C137.707 41.1836 137.485 41.7248 137.123 42.2129L135.226 41.0689C135.517 40.645 135.66 40.1749 135.654 39.6587C135.655 39.152 135.499 38.6779 135.185 38.2363C134.891 37.8235 134.527 37.5256 134.094 37.3425C133.667 37.1691 133.211 37.1175 132.726 37.1877C132.241 37.2579 131.768 37.4568 131.308 37.7845C130.847 38.1121 130.504 38.4935 130.278 38.9284C130.053 39.3634 129.952 39.811 129.975 40.2711C130.006 40.7409 130.168 41.1822 130.461 41.595C130.782 42.0462 131.182 42.3544 131.661 42.5197C132.14 42.6851 132.632 42.6964 133.138 42.5537L133.567 44.7421C133.016 44.9025 132.44 44.9362 131.839 44.8432C131.248 44.7434 130.681 44.5252 130.138 44.1885C129.604 43.8451 129.136 43.3901 128.733 42.8238Z" fill="white"/>
<path d="M134.155 51.8875C133.661 50.923 133.54 50.0391 133.79 49.2359C134.056 48.4378 134.671 47.7917 135.636 47.2977L139.41 45.3644L138.653 43.8861L140.493 42.9437L140.574 43.1009C140.788 43.5203 141.065 43.7889 141.403 43.9068C141.742 44.0247 142.121 43.9762 142.54 43.7614L143.2 43.4231L144.256 45.4833L142.306 46.4821L143.312 48.4479L141.472 49.3904L140.466 47.4246L136.801 49.3014C136.518 49.4464 136.301 49.6171 136.15 49.8135C136.005 50.0204 135.933 50.2555 135.936 50.5189C135.944 50.7928 136.034 51.0975 136.206 51.433C136.243 51.5064 136.291 51.5875 136.35 51.6765C136.414 51.776 136.476 51.8702 136.535 51.9592L134.773 52.8614C134.677 52.7254 134.57 52.5684 134.453 52.3904C134.335 52.2124 134.236 52.0448 134.155 51.8875Z" fill="white"/>
<path d="M136.738 57.3788L149.469 54.03L149.945 55.8413L142.356 65.3287L141.92 64.4383L151.541 61.9076L152.152 64.2316L139.422 67.5804L138.941 65.752L146.626 56.3491L147.038 57.1541L137.349 59.7028L136.738 57.3788Z" fill="white"/>
<path d="M139.805 74.9029C139.753 73.962 139.924 73.0914 140.317 72.2913C140.71 71.503 141.271 70.8589 141.998 70.359C142.727 69.8708 143.573 69.6004 144.538 69.5476C145.502 69.4948 146.373 69.6713 147.15 70.0771C147.928 70.4947 148.555 71.0738 149.032 71.8145C149.509 72.5552 149.774 73.402 149.826 74.3547C149.878 75.2956 149.707 76.1603 149.313 76.9486C148.92 77.737 148.359 78.3752 147.631 78.8633C146.915 79.3626 146.069 79.6389 145.093 79.6923C144.128 79.7451 143.257 79.5627 142.479 79.1452C141.701 78.7276 141.074 78.1485 140.597 77.4078C140.12 76.6671 139.856 75.8321 139.805 74.9029ZM141.922 74.7871C141.95 75.3046 142.099 75.7507 142.367 76.1253C142.636 76.5117 142.994 76.8048 143.441 77.0044C143.901 77.2152 144.408 77.3055 144.96 77.2752C145.525 77.2444 146.012 77.0997 146.423 76.8413C146.846 76.594 147.17 76.2637 147.395 75.8502C147.633 75.4479 147.737 74.988 147.709 74.4705C147.68 73.9412 147.525 73.4837 147.245 73.0979C146.976 72.7115 146.617 72.4126 146.169 72.2012C145.734 72.0009 145.233 71.9162 144.669 71.9471C144.116 71.9773 143.622 72.1164 143.188 72.3643C142.765 72.6234 142.441 72.9596 142.216 73.373C141.991 73.7864 141.893 74.2578 141.922 74.7871Z" fill="white"/>
<path d="M139.9 84.473L149.909 82.7054L149.53 85.1141L141.944 86.3693L142.094 85.5342L148.883 89.2157L148.564 91.2404L140.974 92.638L141.089 91.7974L147.92 95.3246L147.541 97.7333L138.56 92.9731L138.882 90.931L146.812 89.5333L146.691 90.3012L139.581 86.4976L139.9 84.473Z" fill="white"/>
<path d="M141.603 103.819L143.108 102.915L144.227 104.778L145.645 103.167L146.967 104.311L145.566 105.929L147.654 106.798L146.975 108.429L144.887 107.56L144.726 109.694L142.982 109.561L143.127 107.42L141.016 107.939L140.604 106.217L142.715 105.698L141.603 103.819Z" fill="white"/>
<path d="M127.751 115.043C128.305 114.28 128.955 113.676 129.703 113.228C130.443 112.791 131.237 112.509 132.086 112.383C132.928 112.266 133.779 112.317 134.64 112.535C135.501 112.753 136.327 113.149 137.118 113.724C137.909 114.299 138.544 114.957 139.025 115.699C139.507 116.457 139.819 117.251 139.958 118.081C140.101 118.927 140.07 119.771 139.866 120.613C139.671 121.462 139.297 122.267 138.743 123.03C138.189 123.792 137.566 124.38 136.872 124.793C136.172 125.216 135.455 125.482 134.721 125.589C133.997 125.704 133.317 125.668 132.68 125.482L133.133 123.147C133.812 123.334 134.496 123.314 135.185 123.087C135.884 122.867 136.479 122.418 136.971 121.742C137.456 121.075 137.728 120.37 137.787 119.627C137.84 118.893 137.693 118.182 137.348 117.495C136.996 116.817 136.449 116.208 135.705 115.668C134.962 115.128 134.209 114.792 133.446 114.66C132.685 114.544 131.964 114.624 131.283 114.901C130.595 115.187 130.008 115.663 129.523 116.331C129.032 117.007 128.784 117.708 128.781 118.434C128.788 119.167 128.985 119.827 129.373 120.415L127.291 121.567C126.918 121.019 126.669 120.379 126.545 119.648C126.43 118.924 126.466 118.164 126.652 117.367C126.831 116.58 127.197 115.805 127.751 115.043Z" fill="white"/>
<path d="M119.514 124.105C120.214 123.473 120.998 123.059 121.867 122.861C122.728 122.672 123.581 122.703 124.427 122.954C125.265 123.214 126.007 123.702 126.654 124.419C127.302 125.136 127.712 125.924 127.885 126.784C128.049 127.651 127.993 128.503 127.717 129.34C127.441 130.176 126.948 130.914 126.24 131.554C125.541 132.185 124.761 132.596 123.9 132.786C123.04 132.975 122.191 132.94 121.354 132.681C120.515 132.438 119.769 131.953 119.113 131.228C118.466 130.511 118.06 129.719 117.896 128.851C117.732 127.984 117.788 127.132 118.064 126.295C118.34 125.459 118.824 124.728 119.514 124.105ZM120.935 125.679C120.551 126.026 120.297 126.422 120.174 126.866C120.043 127.318 120.04 127.78 120.166 128.254C120.291 128.744 120.539 129.195 120.91 129.606C121.289 130.025 121.708 130.313 122.167 130.47C122.625 130.644 123.086 130.688 123.549 130.603C124.011 130.535 124.434 130.327 124.819 129.98C125.213 129.625 125.471 129.217 125.595 128.756C125.726 128.304 125.733 127.837 125.616 127.356C125.498 126.891 125.25 126.449 124.871 126.029C124.5 125.619 124.081 125.322 123.615 125.14C123.148 124.974 122.683 124.934 122.22 125.019C121.757 125.103 121.329 125.323 120.935 125.679Z" fill="white"/>
<path d="M114.125 128.869L119.19 137.038L117.343 138.183L116.347 136.577L116.674 136.769C116.788 137.377 116.707 137.94 116.432 138.457C116.153 138.991 115.723 139.438 115.142 139.798C114.541 140.17 113.93 140.369 113.308 140.394C112.676 140.425 112.084 140.287 111.532 139.977C110.986 139.678 110.524 139.223 110.145 138.613L106.887 133.357L108.854 132.137L111.824 136.927C112.048 137.288 112.31 137.555 112.612 137.728C112.913 137.902 113.232 137.981 113.57 137.966C113.903 137.967 114.235 137.865 114.565 137.66C114.886 137.462 115.124 137.21 115.282 136.904C115.445 136.609 115.516 136.288 115.495 135.94C115.474 135.593 115.351 135.239 115.128 134.879L112.158 130.089L114.125 128.869Z" fill="white"/>
<path d="M101.107 135.758C102.099 135.321 102.988 135.251 103.775 135.548C104.557 135.86 105.166 136.512 105.603 137.504L107.312 141.385L108.832 140.715L109.666 142.607L109.504 142.678C109.073 142.868 108.789 143.129 108.651 143.459C108.514 143.79 108.54 144.171 108.73 144.603L109.029 145.282L106.911 146.215L106.028 144.21L104.006 145.1L103.173 143.209L105.194 142.318L103.534 138.551C103.406 138.259 103.248 138.033 103.061 137.871C102.863 137.714 102.632 137.628 102.369 137.616C102.096 137.608 101.786 137.68 101.441 137.832C101.366 137.865 101.282 137.908 101.19 137.962C101.087 138.02 100.989 138.076 100.897 138.129L100.099 136.318C100.24 136.23 100.403 136.133 100.588 136.026C100.772 135.919 100.945 135.83 101.107 135.758Z" fill="white"/>
<path d="M95.9536 137.42C96.5998 137.237 97.1914 137.187 97.7283 137.268C98.2652 137.349 98.72 137.551 99.0927 137.874C99.4686 138.209 99.7317 138.643 99.882 139.175C100.026 139.686 100.041 140.171 99.9257 140.632C99.8141 141.104 99.5586 141.543 99.1592 141.95C98.7598 142.356 98.2133 142.718 97.5197 143.036L94.6319 144.383L94.1521 142.683L96.6292 141.507C97.049 141.303 97.3378 141.068 97.4956 140.803C97.6535 140.538 97.686 140.242 97.5933 139.913C97.5037 139.595 97.3127 139.374 97.0203 139.248C96.7197 139.137 96.388 139.133 96.0252 139.235C95.5604 139.366 95.1794 139.578 94.8823 139.87C94.5771 140.176 94.3777 140.532 94.2841 140.938C94.1792 141.347 94.1859 141.761 94.3043 142.181L94.9759 144.562C95.0878 144.959 95.3393 145.243 95.7303 145.414C96.1132 145.599 96.5597 145.62 97.0699 145.476C97.546 145.342 97.9344 145.092 98.2349 144.726C98.5274 144.374 98.6994 143.964 98.7512 143.497L100.82 143.868C100.776 144.406 100.611 144.906 100.325 145.366C100.031 145.841 99.6456 146.255 99.1704 146.61C98.6951 146.964 98.1457 147.229 97.5221 147.405C96.7626 147.619 96.0537 147.666 95.3955 147.546C94.7406 147.437 94.184 147.178 93.7259 146.769C93.2596 146.374 92.9337 145.848 92.7482 145.19L91.0115 139.034L93.1202 138.439L93.5664 140.021L93.0998 140.189C93.2259 139.725 93.415 139.311 93.667 138.946C93.9222 138.592 94.2388 138.283 94.6167 138.017C94.9978 137.763 95.4434 137.564 95.9536 137.42Z" fill="white"/>
<path d="M84.125 139.736C85.0741 139.638 85.9518 139.767 86.7581 140.122C87.5539 140.49 88.2073 141.026 88.7181 141.732C89.2302 142.448 89.5351 143.282 89.6329 144.231C89.7307 145.18 89.6015 146.052 89.2453 146.846C88.889 147.641 88.3583 148.294 87.653 148.804C86.9361 149.316 86.103 149.621 85.1539 149.719C84.4743 149.789 83.8289 149.731 83.2176 149.546C82.6076 149.372 82.0699 149.096 81.6046 148.717C81.1288 148.352 80.7676 147.892 80.5209 147.337L82.4516 146.25C82.6769 146.712 83.0155 147.068 83.4676 147.317C83.9079 147.568 84.3975 147.666 84.9365 147.61C85.4404 147.558 85.8788 147.389 86.2519 147.101C86.6132 146.816 86.8828 146.444 87.0608 145.988C87.2387 145.531 87.2987 145.022 87.2407 144.459C87.1828 143.897 87.0201 143.41 86.7528 143C86.4855 142.589 86.1458 142.281 85.7338 142.075C85.31 141.87 84.8462 141.793 84.3423 141.845C83.7916 141.902 83.3263 142.098 82.9464 142.433C82.5665 142.768 82.314 143.191 82.1889 143.701L80.0735 142.996C80.2054 142.437 80.4599 141.92 80.8371 141.442C81.2154 140.977 81.6849 140.591 82.2454 140.285C82.8071 139.99 83.4336 139.807 84.125 139.736Z" fill="white"/>
<path d="M73.4529 139.989C74.5357 140.034 75.3648 140.364 75.9403 140.977C76.5035 141.602 76.7624 142.456 76.7169 143.539L76.5389 147.776L78.1984 147.846L78.1116 149.911L77.935 149.904C77.4643 149.884 77.0942 149.992 76.8249 150.228C76.5556 150.465 76.4111 150.818 76.3913 151.289L76.3601 152.03L74.0475 151.933L74.1395 149.744L71.9327 149.651L72.0195 147.586L74.2263 147.679L74.3991 143.565C74.4124 143.248 74.3708 142.975 74.2743 142.747C74.166 142.518 73.9966 142.34 73.7662 142.212C73.524 142.084 73.2146 142.012 72.838 141.996C72.7556 141.993 72.6612 141.995 72.5548 142.002C72.4366 142.009 72.3243 142.016 72.2179 142.023L72.3009 140.046C72.4667 140.03 72.656 140.014 72.8688 139.999C73.0817 139.985 73.2764 139.981 73.4529 139.989Z" fill="white"/>
<path d="M67.4024 139.536L64.0595 152.269L62.2479 151.793L57.7179 140.519L58.7072 140.578L56.1809 150.2L53.8567 149.59L57.1996 136.858L59.0283 137.338L63.4378 148.653L62.534 148.616L65.0782 138.926L67.4024 139.536Z" fill="white"/>
<path d="M50.6296 133.583C51.4737 134.002 52.1471 134.579 52.6498 135.315C53.142 136.046 53.4262 136.851 53.5027 137.731C53.5685 138.605 53.3868 139.475 52.9574 140.34C52.5281 141.206 51.9454 141.876 51.2093 142.353C50.4626 142.824 49.6495 143.084 48.7699 143.134C47.8903 143.185 47.0231 142.998 46.1684 142.573C45.3243 142.155 44.6561 141.58 44.164 140.849C43.6719 140.118 43.3929 139.316 43.327 138.441C43.2453 137.572 43.4218 136.7 43.8564 135.824C44.2858 134.959 44.8738 134.291 45.6204 133.82C46.367 133.348 47.1801 133.088 48.0597 133.038C48.9394 132.988 49.796 133.17 50.6296 133.583ZM49.6871 135.483C49.2228 135.252 48.7616 135.161 48.3034 135.21C47.8347 135.254 47.4032 135.421 47.009 135.712C46.599 136.008 46.2709 136.404 46.0248 136.9C45.7735 137.407 45.6591 137.902 45.6816 138.387C45.6884 138.877 45.8162 139.321 46.065 139.721C46.298 140.126 46.6466 140.444 47.1109 140.674C47.5858 140.91 48.0602 141 48.5341 140.946C49.0028 140.903 49.4396 140.738 49.8444 140.452C50.2333 140.172 50.5535 139.779 50.8048 139.272C51.0509 138.776 51.1732 138.278 51.1717 137.777C51.1544 137.282 51.0213 136.835 50.7725 136.435C50.5237 136.036 50.1619 135.718 49.6871 135.483Z" fill="white"/>
<path d="M42.3422 128.994L38.9447 138.574L37.0364 137.056L39.6844 129.838L40.3372 130.38L33.7866 134.471L32.1825 133.196L34.7089 125.903L35.3837 126.417L28.9466 130.622L27.0383 129.104L35.6076 123.638L37.2256 124.925L34.5317 132.513L33.9232 132.029L40.7381 127.719L42.3422 128.994Z" fill="white"/>
<path d="M24.6576 120.947L24.7063 122.703L22.5337 122.763L23.2416 124.788L21.5955 125.379L20.8737 123.365L19.0914 124.757L18.0037 123.365L19.786 121.972L18.0059 120.784L18.9776 119.33L20.7716 120.507L21.356 118.414L23.0586 118.9L22.4742 120.993L24.6576 120.947Z" fill="white"/>
<path d="M21.673 103.379C22.0657 104.235 22.2737 105.099 22.2969 105.969C22.3152 106.829 22.1711 107.66 21.8646 108.461C21.5532 109.252 21.0914 109.969 20.4792 110.612C19.8671 111.256 19.1166 111.781 18.2278 112.188C17.339 112.596 16.4536 112.827 15.5715 112.881C14.6738 112.93 13.8291 112.812 13.0376 112.526C12.2304 112.236 11.5101 111.795 10.8765 111.204C10.2322 110.618 9.71368 109.897 9.32102 109.04C8.92836 108.184 8.72198 107.352 8.70188 106.545C8.67687 105.727 8.79732 104.972 9.06323 104.28C9.31843 103.593 9.68318 103.017 10.1575 102.554L11.9712 104.094C11.4746 104.593 11.1563 105.199 11.0162 105.911C10.8654 106.628 10.9643 107.367 11.3128 108.127C11.6563 108.877 12.1373 109.46 12.7558 109.876C13.3693 110.282 14.0602 110.503 14.8285 110.539C15.5919 110.565 16.3913 110.387 17.2265 110.004C18.0618 109.621 18.7241 109.13 19.2136 108.529C19.6874 107.923 19.9709 107.256 20.0642 106.526C20.1525 105.786 20.0249 105.041 19.6813 104.292C19.3328 103.531 18.8431 102.972 18.2122 102.613C17.5706 102.259 16.8984 102.107 16.1957 102.157L16.213 99.778C16.8738 99.7213 17.5531 99.8181 18.251 100.068C18.9381 100.324 19.5833 100.728 20.1865 101.28C20.7849 101.823 21.2804 102.522 21.673 103.379Z" fill="white"/>
<path d="M17.8286 91.7411C18.0333 92.661 18.0074 93.5477 17.7509 94.4013C17.4918 95.2434 17.0443 95.9705 16.4082 96.5827C15.7696 97.1835 14.9788 97.5888 14.036 97.7986C13.0931 98.0085 12.2051 97.9769 11.372 97.7037C10.5363 97.4191 9.82254 96.9504 9.23075 96.2977C8.63896 95.645 8.23941 94.853 8.03211 93.9217C7.82737 93.0018 7.85454 92.1208 8.11362 91.2788C8.3727 90.4367 8.82155 89.7153 9.46019 89.1145C10.0848 88.5049 10.8742 88.0938 11.8286 87.8814C12.7714 87.6716 13.6607 87.7089 14.4964 87.9936C15.3321 88.2782 16.0458 88.7469 16.6376 89.3996C17.2294 90.0523 17.6264 90.8328 17.8286 91.7411ZM15.7589 92.2018C15.6463 91.6959 15.427 91.2801 15.1011 90.9544C14.7726 90.6172 14.3714 90.3867 13.8973 90.2629C13.4092 90.1302 12.8949 90.124 12.3545 90.2443C11.8026 90.3671 11.3453 90.5896 10.9825 90.9117C10.6057 91.2249 10.3401 91.6038 10.1856 92.0485C10.0171 92.4842 9.98918 92.9551 10.1018 93.461C10.217 93.9784 10.4445 94.4044 10.7845 94.7391C11.113 95.0763 11.5155 95.3125 11.9922 95.4478C12.4547 95.5741 12.962 95.5758 13.5139 95.453C14.0543 95.3327 14.5186 95.1147 14.907 94.799C15.2812 94.4743 15.5456 94.0897 15.7 93.645C15.8544 93.2003 15.8741 92.7192 15.7589 92.2018Z" fill="white"/>
<path d="M16.3447 84.7228L6.74008 85.1024L6.65426 82.9308L8.54341 82.8561L8.21493 83.0459C7.62934 82.8451 7.17941 82.4974 6.86515 82.0029C6.53865 81.4971 6.36191 80.9028 6.33493 80.2202C6.30702 79.5139 6.43538 78.8841 6.72002 78.3305C7.00418 77.7652 7.41683 77.3186 7.95794 76.9907C8.48728 76.6633 9.11095 76.4854 9.82895 76.457L16.0084 76.2128L16.0998 78.5257L10.4677 78.7483C10.0439 78.765 9.68232 78.8618 9.3828 79.0387C9.08328 79.2156 8.85695 79.4544 8.70379 79.7552C8.5384 80.0447 8.46338 80.3836 8.47873 80.772C8.49361 81.1487 8.59515 81.4807 8.78333 81.7679C8.95975 82.0557 9.20423 82.2759 9.51677 82.4286C9.82931 82.5813 10.1975 82.6493 10.6212 82.6325L16.2533 82.4099L16.3447 84.7228Z" fill="white"/>
<path d="M16.7663 69.9076C16.6584 70.986 16.2815 71.7947 15.6356 72.3338C14.9792 72.86 14.1118 73.0692 13.0335 72.9612L8.81391 72.5389L8.6485 74.1916L6.59146 73.9857L6.60905 73.8099C6.65598 73.341 6.56928 72.9654 6.34894 72.6829C6.12861 72.4004 5.78402 72.2357 5.31518 72.1887L4.57676 72.1148L4.80728 69.8116L6.98739 70.0298L7.20735 67.8322L9.26439 68.038L9.04443 70.2357L13.1409 70.6457C13.4574 70.6774 13.7323 70.6517 13.9655 70.5685C14.2 70.4735 14.3875 70.3147 14.5282 70.092C14.67 69.8576 14.7597 69.5529 14.7973 69.1778C14.8055 69.0958 14.809 69.0014 14.8078 68.8947C14.8078 68.7764 14.8073 68.6638 14.8061 68.5572L16.7752 68.7543C16.7823 68.9207 16.7869 69.1106 16.7893 69.3239C16.7916 69.5372 16.7839 69.7318 16.7663 69.9076Z" fill="white"/>
<path d="M17.8522 64.6132C17.6932 65.2656 17.4465 65.8056 17.1119 66.2333C16.7774 66.661 16.3777 66.9577 15.913 67.1233C15.4369 67.2861 14.9298 67.302 14.3919 67.171C13.8769 67.0455 13.447 66.8195 13.1022 66.493C12.746 66.1637 12.4891 65.7253 12.3315 65.1777C12.1739 64.6301 12.1272 63.9761 12.1912 63.2157L12.4379 60.0387L14.1546 60.457L13.961 63.1923C13.9323 63.6582 13.9945 64.0249 14.1476 64.2926C14.3006 64.5602 14.543 64.7345 14.8749 64.8153C15.1954 64.8934 15.4822 64.836 15.7353 64.643C15.9798 64.4359 16.1466 64.1492 16.2358 63.7829C16.3502 63.3137 16.3533 62.878 16.2452 62.4758C16.1284 62.0594 15.9163 61.7106 15.6089 61.4296C15.3043 61.1372 14.9403 60.9394 14.5168 60.8362L12.1134 60.2506C11.7129 60.153 11.3419 60.2324 11.0006 60.4887C10.6507 60.7308 10.4129 61.1093 10.2875 61.6244C10.1703 62.105 10.1974 62.5663 10.3686 63.0081C10.5311 63.4357 10.8032 63.7869 11.1849 64.0617L9.84463 65.6811C9.39712 65.3781 9.04337 64.9888 8.78339 64.5132C8.51475 64.0234 8.34296 63.4845 8.26801 62.8964C8.19306 62.3083 8.23227 61.6995 8.38564 61.0701C8.57247 60.3033 8.88005 59.6629 9.30838 59.1489C9.72527 58.6321 10.2245 58.2749 10.8062 58.0771C11.3792 57.8651 11.9976 57.84 12.6614 58.0017L18.8759 59.5159L18.3572 61.6446L16.7607 61.2556L16.8435 60.7666C17.1855 61.1045 17.4534 61.4729 17.6472 61.8717C17.8296 62.2677 17.9436 62.6956 17.9892 63.1553C18.0233 63.6122 17.9777 64.0982 17.8522 64.6132Z" fill="white"/>
<path d="M21.6559 53.1666C21.2738 54.0409 20.7298 54.7416 20.0238 55.2687C19.3117 55.7802 18.523 56.0848 17.6577 56.1822C16.7815 56.275 15.9063 56.1304 15.032 55.7483C14.1577 55.3662 13.4624 54.8245 12.9461 54.1233C12.4299 53.422 12.123 52.6387 12.0255 51.7734C11.9327 50.8972 12.0774 50.022 12.4595 49.1477C12.733 48.5216 13.1011 47.9883 13.5636 47.5477C14.0154 47.1023 14.5204 46.7702 15.0788 46.5515C15.6311 46.3172 16.2095 46.2293 16.8138 46.2877L16.8097 48.5034C16.2964 48.4719 15.8199 48.5915 15.3803 48.8622C14.9453 49.122 14.6193 49.5002 14.4024 49.9968C14.1995 50.4609 14.1313 50.926 14.1976 51.392C14.2686 51.8473 14.4589 52.2647 14.7687 52.6443C15.0784 53.024 15.4924 53.327 16.0105 53.5534C16.5286 53.7798 17.0321 53.8777 17.5211 53.8472C18.0101 53.8166 18.4458 53.6728 18.8281 53.4156C19.2152 53.1477 19.5101 52.7817 19.713 52.3175C19.9347 51.8102 19.9931 51.3087 19.8884 50.813C19.7836 50.3173 19.54 49.8894 19.1574 49.5294L20.813 48.0354C21.234 48.4251 21.5593 48.9015 21.7889 49.4646C22.0077 50.023 22.1125 50.6215 22.1033 51.2603C22.0833 51.8943 21.9342 52.5298 21.6559 53.1666Z" fill="white"/>
<path d="M26.6511 43.8378C26.0777 44.7574 25.3822 45.3163 24.5646 45.5146C23.7432 45.6965 22.8727 45.5009 21.9531 44.9275L18.3545 42.684L17.4758 44.0935L15.7214 42.9998L15.8149 42.8498C16.0642 42.45 16.1524 42.0747 16.0796 41.7239C16.0068 41.3731 15.7705 41.0731 15.3706 40.8238L14.7409 40.4312L15.9654 38.4669L17.8247 39.6261L18.9932 37.7518L20.7475 38.8455L19.579 40.7198L23.0727 42.8978C23.3426 43.0661 23.6005 43.1645 23.8465 43.1929C24.0988 43.2113 24.3372 43.1518 24.5618 43.0142C24.7926 42.8666 25.0078 42.6328 25.2072 42.313C25.2508 42.243 25.2957 42.1599 25.3417 42.0637C25.3941 41.9575 25.4433 41.8563 25.4894 41.7601L27.1687 42.8071C27.1015 42.9595 27.0217 43.1319 26.9296 43.3243C26.8374 43.5167 26.7445 43.6878 26.6511 43.8378Z" fill="white"/>
<path d="M30.0315 38.7983L20.5936 29.6217L21.8993 28.2789L33.9424 29.8842L33.4042 30.7165L26.272 23.7817L27.9472 22.0588L37.3851 31.2354L36.0671 32.5909L24.0472 30.8603L24.5237 30.0914L31.7066 37.0755L30.0315 38.7983Z" fill="white"/>
<path d="M43.4641 27.1126C42.6851 27.643 41.8517 27.9468 40.9638 28.0241C40.0856 28.0948 39.2445 27.9478 38.4404 27.5832C37.6461 27.212 36.9772 26.6272 36.4335 25.8288C35.8899 25.0303 35.5909 24.1936 35.5366 23.3185C35.4921 22.4368 35.6636 21.6003 36.0512 20.8091C36.4388 20.0179 37.0269 19.3538 37.8156 18.8168C38.5945 18.2865 39.4231 17.9859 40.3013 17.9153C41.1795 17.8446 42.0157 17.9949 42.81 18.3661C43.6074 18.721 44.2813 19.3025 44.8315 20.1106C45.3752 20.9091 45.6693 21.7491 45.7138 22.6308C45.7584 23.5126 45.5869 24.349 45.1993 25.1402C44.8117 25.9314 44.2333 26.5889 43.4641 27.1126ZM42.2707 25.36C42.6992 25.0683 43.0044 24.7108 43.1865 24.2875C43.3783 23.8577 43.4441 23.3996 43.3838 22.9134C43.3266 22.4108 43.1422 21.9307 42.8306 21.473C42.5124 21.0057 42.1366 20.663 41.7032 20.4451C41.2729 20.2108 40.8226 20.1041 40.3523 20.125C39.8851 20.1296 39.4374 20.2778 39.0089 20.5695C38.5708 20.8678 38.2591 21.2368 38.0739 21.6764C37.8821 22.1063 37.8114 22.5677 37.862 23.0605C37.9157 23.537 38.1016 24.0089 38.4198 24.4763C38.7314 24.9339 39.1057 25.2848 39.5426 25.5288C39.9827 25.7565 40.4378 25.8598 40.9081 25.8389C41.3784 25.818 41.8326 25.6583 42.2707 25.36Z" fill="white"/>
<path d="M51.5291 22.1355L44.8507 14.4731L47.1099 13.5556L52.0987 19.4058L51.3062 19.7086L50.957 11.9931L52.856 11.2218L57.9691 17.0025L57.19 17.338L56.6868 9.666L58.9459 8.74846L59.5016 18.8975L57.5862 19.6754L52.2977 13.6036L53.018 13.3111L53.4281 21.3642L51.5291 22.1355Z" fill="white"/>
<path d="M67.2207 10.6972L65.6692 9.87391L66.6878 7.95397L64.5766 7.57118L64.8742 5.84776L66.9828 6.21307L66.6502 3.97598L68.3979 3.71613L68.7305 5.95322L70.6417 4.99026L71.4277 6.55257L69.5192 7.53301L71.0523 9.07357L69.7899 10.3152L68.2568 8.77465L67.2207 10.6972Z" fill="white"/>
</svg>
